<?xml version="1.0" standalone="no"?>
<!DOCTYPE svg PUBLIC "-//W3C//DTD SVG 20010904//EN"
 "http://www.w3.org/TR/2001/REC-SVG-20010904/DTD/svg10.dtd">
<svg version="1.0" xmlns="http://www.w3.org/2000/svg"
 width="1879.000000pt" height="1879.000000pt" viewBox="0 0 1879.000000 1879.000000"
 preserveAspectRatio="xMidYMid meet">
<metadata>
Created by potrace 1.11, written by Peter Selinger 2001-2013
</metadata>
<g transform="translate(0.000000,1879.000000) scale(0.100000,-0.100000)"
fill="#000000" stroke="none">
<path d="M8379 15316 c-2 -2 -57 -7 -121 -11 -65 -3 -128 -8 -140 -10 -13 -2
-50 -6 -83 -10 -33 -3 -75 -8 -92 -11 -18 -2 -48 -6 -65 -8 -32 -4 -128 -19
-138 -21 -3 -1 -25 -5 -50 -9 -267 -45 -598 -133 -879 -232 -86 -31 -169 -62
-186 -69 -16 -7 -70 -30 -120 -50 -465 -194 -919 -465 -1317 -787 -350 -282
-592 -602 -732 -963 -29 -75 -76 -239 -90 -311 -40 -209 -40 -490 0 -649 67
-263 305 -460 619 -513 83 -14 468 -4 495 13 12 8 90 15 90 9 0 -4 -20 -41
-44 -83 -60 -102 -142 -277 -191 -406 -28 -75 -84 -240 -90 -265 -2 -8 -15
-57 -30 -109 -32 -114 -85 -346 -85 -372 0 -26 -17 -24 -56 6 -18 14 -36 25
-40 25 -4 0 -15 6 -23 14 -41 36 -310 154 -391 171 -8 2 -44 11 -80 20 -36 9
-77 19 -92 20 -15 2 -53 8 -85 14 -171 30 -578 34 -743 7 -14 -3 -45 -7 -70
-11 -25 -3 -63 -8 -85 -11 -33 -5 -147 -26 -265 -50 -14 -3 -70 -16 -125 -30
-144 -35 -148 -36 -172 -38 -11 0 -19 -4 -17 -8 2 -3 -10 -10 -28 -13 -18 -4
-81 -23 -141 -42 l-107 -34 6 -47 c80 -621 397 -1165 949 -1627 332 -278 675
-486 1118 -679 49 -22 57 -29 58 -53 0 -15 2 -44 4 -63 1 -19 6 -84 9 -145 4
-60 9 -146 12 -189 l6 -79 -74 62 c-69 56 -98 72 -98 54 0 -5 -27 -37 -60 -73
-74 -81 -141 -178 -182 -267 -18 -37 -34 -72 -35 -78 -1 -5 -14 -48 -28 -95
-68 -225 -66 -600 5 -890 11 -47 23 -96 26 -110 3 -14 17 -54 30 -90 14 -36
35 -90 46 -120 31 -82 159 -344 213 -435 75 -128 187 -292 282 -410 119 -151
380 -409 543 -538 74 -59 142 -114 151 -122 9 -8 18 -15 21 -15 3 0 47 -27 96
-60 322 -213 719 -404 1137 -545 182 -62 592 -173 700 -189 22 -4 48 -9 57
-12 9 -3 27 -7 40 -9 13 -3 34 -7 48 -10 37 -8 71 -15 105 -20 17 -3 55 -10
85 -15 30 -5 73 -12 95 -15 22 -3 51 -8 65 -10 14 -3 42 -7 63 -10 20 -3 52
-7 70 -9 113 -16 338 -41 447 -51 145 -12 179 -14 275 -20 55 -3 127 -8 160
-10 68 -5 540 -17 685 -18 93 -1 270 9 320 17 14 3 48 7 75 11 161 19 564 107
770 169 28 8 68 20 90 26 412 118 999 365 1396 587 182 101 353 204 357 215 2
4 8 8 12 8 8 0 133 82 260 171 57 40 323 248 370 290 19 17 67 58 105 92 206
181 537 541 655 714 8 11 49 70 90 130 223 319 410 693 533 1063 38 114 88
283 102 348 23 103 56 265 60 297 4 22 12 81 20 130 8 50 17 119 21 155 3 36
8 79 10 95 19 186 19 739 0 855 -5 32 -19 190 -18 211 0 8 46 60 103 115 135
132 273 271 334 338 28 30 56 55 63 55 6 1 11 4 10 9 -2 6 48 64 113 132 38
40 229 270 269 325 24 33 46 62 50 65 18 15 148 225 185 299 101 202 118 371
51 497 -20 38 -73 96 -114 123 -68 47 -259 103 -401 118 -133 13 -383 3 -531
-23 -141 -24 -203 -36 -250 -50 -30 -8 -82 -22 -115 -29 -33 -8 -96 -26 -139
-40 -44 -14 -83 -22 -86 -18 -3 5 -26 58 -49 118 -42 107 -63 157 -101 240
-10 22 -26 58 -36 80 -24 57 -179 367 -216 433 -60 109 -71 128 -126 222 -48
82 -242 386 -265 415 -4 6 -40 55 -79 110 -66 91 -213 284 -265 345 -276 329
-541 602 -833 856 -25 21 -47 41 -50 44 -3 3 -52 44 -110 92 -322 263 -722
535 -1070 728 -93 52 -370 192 -440 223 -19 9 -62 28 -95 42 -129 58 -204 84
-410 146 -16 4 -52 15 -80 23 -54 16 -234 62 -275 70 -14 2 -77 16 -142 30
-64 13 -134 27 -155 31 -21 3 -50 7 -63 10 -24 5 -204 32 -265 40 -62 8 -122
15 -180 20 -33 3 -89 8 -125 11 -77 7 -695 16 -701 10z"/>
</g>
</svg>
